<mxfile host="app.diagrams.net" modified="2024-01-15T10:00:00.000Z" agent="5.0" etag="xxx" version="22.1.16" type="device">
  <diagram name="产品业务架构" id="product-business-arch">
    <mxGraphModel dx="1422" dy="794" grid="1" gridSize="10" guides="1" tooltips="1" connect="1" arrows="1" fold="1" page="1" pageScale="1" pageWidth="1654" pageHeight="1169" math="0" shadow="0">
      <root>
        <mxCell id="0" />
        <mxCell id="1" parent="0" />
        
        <!-- 标题 -->
        <mxCell id="title" value="国网营销档案数据治理产品业务架构" style="text;html=1;strokeColor=none;fillColor=none;align=center;verticalAlign=middle;whiteSpace=wrap;rounded=0;fontSize=24;fontStyle=1;fontColor=#1f497d;" vertex="1" parent="1">
          <mxGeometry x="527" y="20" width="600" height="40" as="geometry" />
        </mxCell>
        
        <!-- 省级管理层 -->
        <mxCell id="province-layer" value="" style="rounded=1;whiteSpace=wrap;html=1;fillColor=#e1f5fe;strokeColor=#01579b;strokeWidth=2;" vertex="1" parent="1">
          <mxGeometry x="50" y="100" width="1554" height="120" as="geometry" />
        </mxCell>
        <mxCell id="province-title" value="省级管理层" style="text;html=1;strokeColor=none;fillColor=none;align=left;verticalAlign=middle;whiteSpace=wrap;rounded=0;fontSize=16;fontStyle=1;fontColor=#01579b;" vertex="1" parent="1">
          <mxGeometry x="70" y="110" width="100" height="30" as="geometry" />
        </mxCell>
        
        <!-- 省级功能模块 -->
        <mxCell id="province-dashboard" value="全省数据质量\n监控大屏" style="rounded=1;whiteSpace=wrap;html=1;fillColor=#fff3e0;strokeColor=#f57c00;" vertex="1" parent="1">
          <mxGeometry x="200" y="130" width="120" height="70" as="geometry" />
        </mxCell>
        <mxCell id="province-policy" value="治理策略\n制定中心" style="rounded=1;whiteSpace=wrap;html=1;fillColor=#fff3e0;strokeColor=#f57c00;" vertex="1" parent="1">
          <mxGeometry x="350" y="130" width="120" height="70" as="geometry" />
        </mxCell>
        <mxCell id="province-analysis" value="跨地市数据\n分析平台" style="rounded=1;whiteSpace=wrap;html=1;fillColor=#fff3e0;strokeColor=#f57c00;" vertex="1" parent="1">
          <mxGeometry x="500" y="130" width="120" height="70" as="geometry" />
        </mxCell>
        <mxCell id="province-report" value="决策支持\n报告系统" style="rounded=1;whiteSpace=wrap;html=1;fillColor=#fff3e0;strokeColor=#f57c00;" vertex="1" parent="1">
          <mxGeometry x="650" y="130" width="120" height="70" as="geometry" />
        </mxCell>
        
        <!-- 市级管理层 -->
        <mxCell id="city-layer" value="" style="rounded=1;whiteSpace=wrap;html=1;fillColor=#f3e5f5;strokeColor=#7b1fa2;strokeWidth=2;" vertex="1" parent="1">
          <mxGeometry x="50" y="250" width="1554" height="120" as="geometry" />
        </mxCell>
        <mxCell id="city-title" value="市级管理层" style="text;html=1;strokeColor=none;fillColor=none;align=left;verticalAlign=middle;whiteSpace=wrap;rounded=0;fontSize=16;fontStyle=1;fontColor=#7b1fa2;" vertex="1" parent="1">
          <mxGeometry x="70" y="260" width="100" height="30" as="geometry" />
        </mxCell>
        
        <!-- 市级功能模块 -->
        <mxCell id="city-monitor" value="市域数据\n监控中心" style="rounded=1;whiteSpace=wrap;html=1;fillColor=#e8f5e8;strokeColor=#2e7d32;" vertex="1" parent="1">
          <mxGeometry x="200" y="280" width="120" height="70" as="geometry" />
        </mxCell>
        <mxCell id="city-governance" value="治理任务\n调度平台" style="rounded=1;whiteSpace=wrap;html=1;fillColor=#e8f5e8;strokeColor=#2e7d32;" vertex="1" parent="1">
          <mxGeometry x="350" y="280" width="120" height="70" as="geometry" />
        </mxCell>
        <mxCell id="city-quality" value="数据质量\n评估系统" style="rounded=1;whiteSpace=wrap;html=1;fillColor=#e8f5e8;strokeColor=#2e7d32;" vertex="1" parent="1">
          <mxGeometry x="500" y="280" width="120" height="70" as="geometry" />
        </mxCell>
        <mxCell id="city-coordination" value="跨县协调\n管理平台" style="rounded=1;whiteSpace=wrap;html=1;fillColor=#e8f5e8;strokeColor=#2e7d32;" vertex="1" parent="1">
          <mxGeometry x="650" y="280" width="120" height="70" as="geometry" />
        </mxCell>
        
        <!-- 县级管理层 -->
        <mxCell id="county-layer" value="" style="rounded=1;whiteSpace=wrap;html=1;fillColor=#fff8e1;strokeColor=#f57f17;strokeWidth=2;" vertex="1" parent="1">
          <mxGeometry x="50" y="400" width="1554" height="120" as="geometry" />
        </mxCell>
        <mxCell id="county-title" value="县级管理层" style="text;html=1;strokeColor=none;fillColor=none;align=left;verticalAlign=middle;whiteSpace=wrap;rounded=0;fontSize=16;fontStyle=1;fontColor=#f57f17;" vertex="1" parent="1">
          <mxGeometry x="70" y="410" width="100" height="30" as="geometry" />
        </mxCell>
        
        <!-- 县级功能模块 -->
        <mxCell id="county-local" value="本地数据\n治理中心" style="rounded=1;whiteSpace=wrap;html=1;fillColor=#fce4ec;strokeColor=#c2185b;" vertex="1" parent="1">
          <mxGeometry x="200" y="430" width="120" height="70" as="geometry" />
        </mxCell>
        <mxCell id="county-task" value="治理任务\n执行平台" style="rounded=1;whiteSpace=wrap;html=1;fillColor=#fce4ec;strokeColor=#c2185b;" vertex="1" parent="1">
          <mxGeometry x="350" y="430" width="120" height="70" as="geometry" />
        </mxCell>
        <mxCell id="county-feedback" value="问题反馈\n处理系统" style="rounded=1;whiteSpace=wrap;html=1;fillColor=#fce4ec;strokeColor=#c2185b;" vertex="1" parent="1">
          <mxGeometry x="500" y="430" width="120" height="70" as="geometry" />
        </mxCell>
        <mxCell id="county-station" value="供电所\n协调管理" style="rounded=1;whiteSpace=wrap;html=1;fillColor=#fce4ec;strokeColor=#c2185b;" vertex="1" parent="1">
          <mxGeometry x="650" y="430" width="120" height="70" as="geometry" />
        </mxCell>
        
        <!-- 供电所层 -->
        <mxCell id="station-layer" value="" style="rounded=1;whiteSpace=wrap;html=1;fillColor=#f1f8e9;strokeColor=#33691e;strokeWidth=2;" vertex="1" parent="1">
          <mxGeometry x="50" y="550" width="1554" height="120" as="geometry" />
        </mxCell>
        <mxCell id="station-title" value="供电所层" style="text;html=1;strokeColor=none;fillColor=none;align=left;verticalAlign=middle;whiteSpace=wrap;rounded=0;fontSize=16;fontStyle=1;fontColor=#33691e;" vertex="1" parent="1">
          <mxGeometry x="70" y="560" width="100" height="30" as="geometry" />
        </mxCell>
        
        <!-- 供电所功能模块 -->
        <mxCell id="station-collection" value="数据采集\n录入系统" style="rounded=1;whiteSpace=wrap;html=1;fillColor=#e3f2fd;strokeColor=#1976d2;" vertex="1" parent="1">
          <mxGeometry x="200" y="580" width="120" height="70" as="geometry" />
        </mxCell>
        <mxCell id="station-check" value="现场核查\n确认工具" style="rounded=1;whiteSpace=wrap;html=1;fillColor=#e3f2fd;strokeColor=#1976d2;" vertex="1" parent="1">
          <mxGeometry x="350" y="580" width="120" height="70" as="geometry" />
        </mxCell>
        <mxCell id="station-mobile" value="移动端\n治理助手" style="rounded=1;whiteSpace=wrap;html=1;fillColor=#e3f2fd;strokeColor=#1976d2;" vertex="1" parent="1">
          <mxGeometry x="500" y="580" width="120" height="70" as="geometry" />
        </mxCell>
        <mxCell id="station-report" value="问题上报\n处理系统" style="rounded=1;whiteSpace=wrap;html=1;fillColor=#e3f2fd;strokeColor=#1976d2;" vertex="1" parent="1">
          <mxGeometry x="650" y="580" width="120" height="70" as="geometry" />
        </mxCell>
        
        <!-- AI治理引擎核心 -->
        <mxCell id="ai-core" value="" style="rounded=1;whiteSpace=wrap;html=1;fillColor=#ffebee;strokeColor=#d32f2f;strokeWidth=3;" vertex="1" parent="1">
          <mxGeometry x="850" y="250" width="700" height="270" as="geometry" />
        </mxCell>
        <mxCell id="ai-title" value="AI数据治理引擎" style="text;html=1;strokeColor=none;fillColor=none;align=center;verticalAlign=middle;whiteSpace=wrap;rounded=0;fontSize=18;fontStyle=1;fontColor=#d32f2f;" vertex="1" parent="1">
          <mxGeometry x="1050" y="260" width="200" height="30" as="geometry" />
        </mxCell>
        
        <!-- Transformer架构组件 -->
        <mxCell id="multi-head" value="多头注意力机制\n(Multi-Head Attention)" style="rounded=1;whiteSpace=wrap;html=1;fillColor=#fff9c4;strokeColor=#f9a825;" vertex="1" parent="1">
          <mxGeometry x="870" y="300" width="150" height="60" as="geometry" />
        </mxCell>
        <mxCell id="encoder" value="编码器\n(Encoder)" style="rounded=1;whiteSpace=wrap;html=1;fillColor=#fff9c4;strokeColor=#f9a825;" vertex="1" parent="1">
          <mxGeometry x="1050" y="300" width="100" height="60" as="geometry" />
        </mxCell>
        <mxCell id="decoder" value="解码器\n(Decoder)" style="rounded=1;whiteSpace=wrap;html=1;fillColor=#fff9c4;strokeColor=#f9a825;" vertex="1" parent="1">
          <mxGeometry x="1180" y="300" width="100" height="60" as="geometry" />
        </mxCell>
        <mxCell id="feed-forward" value="前馈网络\n(Feed Forward)" style="rounded=1;whiteSpace=wrap;html=1;fillColor=#fff9c4;strokeColor=#f9a825;" vertex="1" parent="1">
          <mxGeometry x="1310" y="300" width="120" height="60" as="geometry" />
        </mxCell>
        
        <!-- AI子系统 -->
        <mxCell id="rule-engine" value="规则引擎" style="rounded=1;whiteSpace=wrap;html=1;fillColor=#e8eaf6;strokeColor=#3f51b5;" vertex="1" parent="1">
          <mxGeometry x="870" y="380" width="100" height="50" as="geometry" />
        </mxCell>
        <mxCell id="cross-ref" value="交叉验证" style="rounded=1;whiteSpace=wrap;html=1;fillColor=#e8eaf6;strokeColor=#3f51b5;" vertex="1" parent="1">
          <mxGeometry x="990" y="380" width="100" height="50" as="geometry" />
        </mxCell>
        <mxCell id="pattern-rec" value="模式识别" style="rounded=1;whiteSpace=wrap;html=1;fillColor=#e8eaf6;strokeColor=#3f51b5;" vertex="1" parent="1">
          <mxGeometry x="1110" y="380" width="100" height="50" as="geometry" />
        </mxCell>
        <mxCell id="history-analysis" value="历史分析" style="rounded=1;whiteSpace=wrap;html=1;fillColor=#e8eaf6;strokeColor=#3f51b5;" vertex="1" parent="1">
          <mxGeometry x="1230" y="380" width="100" height="50" as="geometry" />
        </mxCell>
        <mxCell id="decision-fusion" value="决策融合层" style="rounded=1;whiteSpace=wrap;html=1;fillColor=#e8eaf6;strokeColor=#3f51b5;" vertex="1" parent="1">
          <mxGeometry x="1350" y="380" width="100" height="50" as="geometry" />
        </mxCell>
        
        <!-- RLHF和在线学习 -->
        <mxCell id="rlhf" value="RLHF强化学习" style="rounded=1;whiteSpace=wrap;html=1;fillColor=#f3e5f5;strokeColor=#8e24aa;" vertex="1" parent="1">
          <mxGeometry x="870" y="450" width="120" height="50" as="geometry" />
        </mxCell>
        <mxCell id="online-learning" value="在线学习系统" style="rounded=1;whiteSpace=wrap;html=1;fillColor=#f3e5f5;strokeColor=#8e24aa;" vertex="1" parent="1">
          <mxGeometry x="1010" y="450" width="120" height="50" as="geometry" />
        </mxCell>
        <mxCell id="flink-ai" value="Flink 2.1 AI" style="rounded=1;whiteSpace=wrap;html=1;fillColor=#f3e5f5;strokeColor=#8e24aa;" vertex="1" parent="1">
          <mxGeometry x="1150" y="450" width="120" height="50" as="geometry" />
        </mxCell>
        <mxCell id="incremental" value="增量处理引擎" style="rounded=1;whiteSpace=wrap;html=1;fillColor=#f3e5f5;strokeColor=#8e24aa;" vertex="1" parent="1">
          <mxGeometry x="1290" y="450" width="120" height="50" as="geometry" />
        </mxCell>
        
        <!-- 数据层 -->
        <mxCell id="data-layer" value="" style="rounded=1;whiteSpace=wrap;html=1;fillColor=#e0f2f1;strokeColor=#00695c;strokeWidth=2;" vertex="1" parent="1">
          <mxGeometry x="50" y="700" width="1554" height="100" as="geometry" />
        </mxCell>
        <mxCell id="data-title" value="数据存储层" style="text;html=1;strokeColor=none;fillColor=none;align=left;verticalAlign=middle;whiteSpace=wrap;rounded=0;fontSize=16;fontStyle=1;fontColor=#00695c;" vertex="1" parent="1">
          <mxGeometry x="70" y="710" width="120" height="30" as="geometry" />
        </mxCell>
        
        <!-- 数据存储组件 -->
        <mxCell id="oracle-db" value="Oracle\n业务数据库" style="rounded=1;whiteSpace=wrap;html=1;fillColor=#fff3e0;strokeColor=#ef6c00;" vertex="1" parent="1">
          <mxGeometry x="250" y="730" width="120" height="50" as="geometry" />
        </mxCell>
        <mxCell id="postgres-db" value="PostgreSQL\n治理数据库" style="rounded=1;whiteSpace=wrap;html=1;fillColor=#fff3e0;strokeColor=#ef6c00;" vertex="1" parent="1">
          <mxGeometry x="400" y="730" width="120" height="50" as="geometry" />
        </mxCell>
        <mxCell id="redis-cache" value="Redis\n缓存层" style="rounded=1;whiteSpace=wrap;html=1;fillColor=#fff3e0;strokeColor=#ef6c00;" vertex="1" parent="1">
          <mxGeometry x="550" y="730" width="120" height="50" as="geometry" />
        </mxCell>
        <mxCell id="es-search" value="ElasticSearch\n搜索引擎" style="rounded=1;whiteSpace=wrap;html=1;fillColor=#fff3e0;strokeColor=#ef6c00;" vertex="1" parent="1">
          <mxGeometry x="700" y="730" width="120" height="50" as="geometry" />
        </mxCell>
        <mxCell id="kafka-stream" value="Kafka\n消息队列" style="rounded=1;whiteSpace=wrap;html=1;fillColor=#fff3e0;strokeColor=#ef6c00;" vertex="1" parent="1">
          <mxGeometry x="850" y="730" width="120" height="50" as="geometry" />
        </mxCell>
        
        <!-- 连接线 -->
        <!-- 省到市 -->
        <mxCell id="province-to-city" value="" style="endArrow=classic;html=1;rounded=0;strokeColor=#1976d2;strokeWidth=3;flowAnimation=1;" edge="1" parent="1" source="province-dashboard" target="city-monitor">
          <mxGeometry width="50" height="50" relative="1" as="geometry">
            <mxPoint x="260" y="220" as="sourcePoint" />
            <mxPoint x="260" y="270" as="targetPoint" />
          </mxGeometry>
        </mxCell>
        
        <!-- 市到县 -->
        <mxCell id="city-to-county" value="" style="endArrow=classic;html=1;rounded=0;strokeColor=#1976d2;strokeWidth=3;flowAnimation=1;" edge="1" parent="1" source="city-monitor" target="county-local">
          <mxGeometry width="50" height="50" relative="1" as="geometry">
            <mxPoint x="260" y="370" as="sourcePoint" />
            <mxPoint x="260" y="420" as="targetPoint" />
          </mxGeometry>
        </mxCell>
        
        <!-- 县到供电所 -->
        <mxCell id="county-to-station" value="" style="endArrow=classic;html=1;rounded=0;strokeColor=#1976d2;strokeWidth=3;flowAnimation=1;" edge="1" parent="1" source="county-local" target="station-collection">
          <mxGeometry width="50" height="50" relative="1" as="geometry">
            <mxPoint x="260" y="520" as="sourcePoint" />
            <mxPoint x="260" y="570" as="targetPoint" />
          </mxGeometry>
        </mxCell>
        
        <!-- AI引擎连接 -->
        <mxCell id="ai-to-province" value="" style="endArrow=classic;html=1;rounded=0;strokeColor=#d32f2f;strokeWidth=3;flowAnimation=1;" edge="1" parent="1" source="ai-core" target="province-analysis">
          <mxGeometry width="50" height="50" relative="1" as="geometry">
            <mxPoint x="850" y="300" as="sourcePoint" />
            <mxPoint x="620" y="180" as="targetPoint" />
          </mxGeometry>
        </mxCell>
        
        <mxCell id="ai-to-city" value="" style="endArrow=classic;html=1;rounded=0;strokeColor=#d32f2f;strokeWidth=3;flowAnimation=1;" edge="1" parent="1" source="ai-core" target="city-governance">
          <mxGeometry width="50" height="50" relative="1" as="geometry">
            <mxPoint x="850" y="350" as="sourcePoint" />
            <mxPoint x="470" y="330" as="targetPoint" />
          </mxGeometry>
        </mxCell>
        
        <mxCell id="ai-to-county" value="" style="endArrow=classic;html=1;rounded=0;strokeColor=#d32f2f;strokeWidth=3;flowAnimation=1;" edge="1" parent="1" source="ai-core" target="county-task">
          <mxGeometry width="50" height="50" relative="1" as="geometry">
            <mxPoint x="850" y="400" as="sourcePoint" />
            <mxPoint x="470" y="480" as="targetPoint" />
          </mxGeometry>
        </mxCell>
        
        <!-- 数据层连接 -->
        <mxCell id="station-to-data" value="" style="endArrow=classic;html=1;rounded=0;strokeColor=#00695c;strokeWidth=3;flowAnimation=1;" edge="1" parent="1" source="station-collection" target="oracle-db">
          <mxGeometry width="50" height="50" relative="1" as="geometry">
            <mxPoint x="260" y="670" as="sourcePoint" />
            <mxPoint x="310" y="720" as="targetPoint" />
          </mxGeometry>
        </mxCell>
        
        <mxCell id="ai-to-data" value="" style="endArrow=classic;html=1;rounded=0;strokeColor=#00695c;strokeWidth=3;flowAnimation=1;" edge="1" parent="1" source="ai-core" target="postgres-db">
          <mxGeometry width="50" height="50" relative="1" as="geometry">
            <mxPoint x="1000" y="520" as="sourcePoint" />
            <mxPoint x="460" y="720" as="targetPoint" />
          </mxGeometry>
        </mxCell>
        
        <!-- 效果对比框 -->
        <mxCell id="comparison" value="" style="rounded=1;whiteSpace=wrap;html=1;fillColor=#f8f9fa;strokeColor=#6c757d;strokeWidth=2;dashed=1;" vertex="1" parent="1">
          <mxGeometry x="50" y="850" width="1554" height="200" as="geometry" />
        </mxCell>
        <mxCell id="comparison-title" value="AI治理前后效果对比" style="text;html=1;strokeColor=none;fillColor=none;align=center;verticalAlign=middle;whiteSpace=wrap;rounded=0;fontSize=18;fontStyle=1;fontColor=#495057;" vertex="1" parent="1">
          <mxGeometry x="700" y="860" width="200" height="30" as="geometry" />
        </mxCell>
        
        <!-- 对比内容 -->
        <mxCell id="before" value="治理前" style="text;html=1;strokeColor=none;fillColor=none;align=center;verticalAlign=middle;whiteSpace=wrap;rounded=0;fontSize=16;fontStyle=1;fontColor=#dc3545;" vertex="1" parent="1">
          <mxGeometry x="200" y="900" width="100" height="30" as="geometry" />
        </mxCell>
        <mxCell id="after" value="治理后" style="text;html=1;strokeColor=none;fillColor=none;align=center;verticalAlign=middle;whiteSpace=wrap;rounded=0;fontSize=16;fontStyle=1;fontColor=#28a745;" vertex="1" parent="1">
          <mxGeometry x="900" y="900" width="100" height="30" as="geometry" />
        </mxCell>
        
        <mxCell id="before-content" value="• 人工核查，效率低下\n• 数据质量参差不齐\n• 跨层级协调困难\n• 问题发现滞后\n• 治理成本高昂" style="text;html=1;strokeColor=none;fillColor=#ffebee;align=left;verticalAlign=top;whiteSpace=wrap;rounded=1;fontSize=12;" vertex="1" parent="1">
          <mxGeometry x="100" y="940" width="300" height="80" as="geometry" />
        </mxCell>
        <mxCell id="after-content" value="• AI智能治理，效率提升80%\n• 数据质量统一标准化\n• 多层级协同治理\n• 实时问题发现和处理\n• 治理成本降低60%" style="text;html=1;strokeColor=none;fillColor=#e8f5e8;align=left;verticalAlign=top;whiteSpace=wrap;rounded=1;fontSize=12;" vertex="1" parent="1">
          <mxGeometry x="800" y="940" width="300" height="80" as="geometry" />
        </mxCell>
        
        <!-- 核心价值 -->
        <mxCell id="value" value="核心价值：智能化、标准化、协同化" style="text;html=1;strokeColor=none;fillColor=#fff3cd;align=center;verticalAlign=middle;whiteSpace=wrap;rounded=1;fontSize=14;fontStyle=1;fontColor=#856404;" vertex="1" parent="1">
          <mxGeometry x="1200" y="970" width="300" height="40" as="geometry" />
        </mxCell>
        
      </root>
    </mxGraphModel>
  </diagram>
</mxfile>